<?xml version="1.0" encoding="UTF-8"?>
<svg id="Layer_1" data-name="Layer 1" xmlns="http://www.w3.org/2000/svg" viewBox="0 0 888.96 185.44">
  <defs>
    <style>
      .cls-1 {
        fill: #023d62;
      }

      .cls-1, .cls-2 {
        stroke-width: 0px;
      }

      .cls-2 {
        fill: #9e924d;
      }
    </style>
  </defs>
  <path class="cls-2" d="M343.25,66.81c29.49,0,36.02-66.81-19.99-66.81h-53.3v136.95h55.71c59.66,0,47.65-70.14,17.58-70.14ZM295.87,20.8h23.69c12.22,0,19.25,7.92,19.25,18.29s-7.03,17.1-19.25,17.1h-23.69V20.8ZM321.97,115.97h-26.1v-37.8h25.54c12.59,0,20.54,7.67,20.54,18.77s-7.4,19.03-19.98,19.03Z"/>
  <path class="cls-2" d="M410.37,50.34v-15.91h-25.91v102.52h25.91v-51.07c0-19.81,9.26-25.73,24.62-25.73h6.84v-27.2c-14.25,0-24.98,6.84-31.46,17.39Z"/>
  <path class="cls-2" d="M528.63,34.43v14.62c-6.11-8.52-17.4-16.29-33.87-16.29-26.09,0-46.82,20.54-46.82,52.56s20.73,53.3,46.64,53.3c16.28,0,27.94-7.77,34.05-16.66v14.99h26.09V34.43h-26.09ZM501.43,115.86c-13.88,0-27.02-11.11-27.02-30.54s13.14-29.8,27.02-29.8,27.2,10.74,27.2,30.17-12.95,30.17-27.2,30.17Z"/>
  <path class="cls-2" d="M632.27,32.95c-13.14,0-24.25,5.55-30.91,14.25v-12.77h-25.91v102.52h25.91v-56.63c0-16.47,9.07-25.35,23.13-25.35s22.77,8.88,22.77,25.35v56.63h25.91v-60.14c0-28.32-17.03-43.86-40.9-43.86Z"/>
  <path class="cls-2" d="M767,0v48.68c-7.04-9.63-19.99-15.92-33.5-15.92-26.28,0-47.01,20.54-47.01,52.56s20.73,53.3,46.82,53.3c16.1,0,27.58-7.4,33.69-16.84v15.17h26.28V0h-26.28ZM739.98,115.86c-13.88,0-27.02-11.11-27.02-30.54s13.14-29.8,27.02-29.8,27.2,10.74,27.2,30.17-12.95,30.17-27.2,30.17Z"/>
  <path class="cls-1" d="M888.96,21.1V0h-74.95v136.95h74.95v-21.09h-49.05v-37.69h43.49v-21.98h-43.49V21.1h49.05Z"/>
  <path class="cls-1" d="M129.64,0h-37.96v37.97h37.96V0ZM55.62,0H17.66v37.97h37.96V0ZM133.01,47.54h-44.7l-14.66,53.21-14.66-53.21H14.29L0,136.95h37.37l7.67-48.05,14.24,48.05h28.74l14.24-48.05,7.67,48.05h37.37l-14.29-89.41Z"/>
  <polygon class="cls-1" points="228.35 47.54 206.43 106.05 184.81 47.54 156.3 47.54 191.99 134.36 169.79 185.44 197.36 185.44 255.33 47.54 228.35 47.54"/>
</svg>